HIERARCHY
ROOT Hips
{
  OFFSET 0 89.5177 0.535
  CHANNELS 6 Xposition Yposition Zposition Zrotation Xrotation Yrotation
  JOINT Spine
  {
    OFFSET 12.0259 -0.162855 1.69034e-005
    CHANNELS 3 Zrotation Xrotation Yrotation
    JOINT Spine1
    {
      OFFSET 15.3169 -0.0121922 0
      CHANNELS 3 Zrotation Xrotation Yrotation
      JOINT Spine2
      {
        OFFSET 15.3176 -0.0121908 0
        CHANNELS 3 Zrotation Xrotation Yrotation
        JOINT Neck
        {
          OFFSET 19.9142 1.56338 0
          CHANNELS 3 Zrotation Xrotation Yrotation
          JOINT Head
          {
            OFFSET 6.92651 0 0
            CHANNELS 3 Zrotation Xrotation Yrotation
            End Site
            {
              OFFSET 20.7666 0 0
            }
          }
          JOINT LeftShoulder
          {
            OFFSET -6.20654 0.708824 7.28219
            CHANNELS 3 Zrotation Xrotation Yrotation
            JOINT LeftArm
            {
              OFFSET 14.108 0 -1.52588e-005
              CHANNELS 3 Zrotation Xrotation Yrotation
              JOINT LeftForeArm
              {
                OFFSET 28.5802 0 0
                CHANNELS 3 Zrotation Xrotation Yrotation
                JOINT LeftHand
                {
                  OFFSET 27.092 0 0
                  CHANNELS 3 Zrotation Xrotation Yrotation
                  End Site
                  {
                    OFFSET 9.55928 -0.186424 0.145352
                  }
                }
              }
            }
          }
          JOINT RightShoulder
          {
            OFFSET -6.20654 0.708866 -7.28218
            CHANNELS 3 Zrotation Xrotation Yrotation
            JOINT RightArm
            {
              OFFSET 14.108 0 1.52588e-005
              CHANNELS 3 Zrotation Xrotation Yrotation
              JOINT RightForeArm
              {
                OFFSET 28.5802 0 0
                CHANNELS 3 Zrotation Xrotation Yrotation
                JOINT RightHand
                {
                  OFFSET 27.092 0 0
                  CHANNELS 3 Zrotation Xrotation Yrotation
                  End Site
                  {
                    OFFSET 9.55929 -0.186417 -0.145354
                  }
                }
              }
            }
          }
        }
      }
    }
  }
  JOINT LeftUpLeg
  {
    OFFSET 0.005 -0.535 8.837
    CHANNELS 3 Zrotation Xrotation Yrotation
    JOINT LeftLeg
    {
      OFFSET 39.9035 0 0
      CHANNELS 3 Zrotation Xrotation Yrotation
      JOINT LeftFoot
      {
        OFFSET 39.6689 0 0
        CHANNELS 3 Zrotation Xrotation Yrotation
        JOINT LeftToe
        {
          OFFSET 10.1624 13.6296 0
          CHANNELS 3 Zrotation Xrotation Yrotation
          End Site
          {
            OFFSET 8.38147 0 0
          }
        }
      }
    }
  }
  JOINT RightUpLeg
  {
    OFFSET 0.005 -0.535 -8.837
    CHANNELS 3 Zrotation Xrotation Yrotation
    JOINT RightLeg
    {
      OFFSET 39.9035 0 0
      CHANNELS 3 Zrotation Xrotation Yrotation
      JOINT RightFoot
      {
        OFFSET 39.6689 0 0
        CHANNELS 3 Zrotation Xrotation Yrotation
        JOINT RightToe
        {
          OFFSET 10.1624 13.6296 0
          CHANNELS 3 Zrotation Xrotation Yrotation
          End Site
          {
            OFFSET 8.38147 0 0
          }
        }
      }
    }
  }
}
MOTION
Frames:	15
Frame Time:	0.0333333
263.969 89.5469 42.4457 17.5425 -84.0454 -67.2385 2.14885 -1.20531 -0.86123 4.28079 -2.44147 -1.67707 4.28079 -2.44147 -1.67707 -8.30828e-012 -9.0191e-006 -5.27751e-005 10 -1.69084e-006 2.312e-005 -179.099 -16.6277 -86.8549 -4.86695 -49.1955 16.0017 -11.5288 -9.54166e-015 -0 -64.469 -28.8273 -50.7803 178.599 12.7175 96.3402 39.3991 66.4972 -56.5591 -7.84992 0 -4.96962e-016 -55.5291 20.3993 40.1152 5.55677 3.47136 174.679 -12.1089 1.59028e-015 1.98785e-016 10.3187 5.6448 -11.2339 90 -1.49089e-016 -9.93923e-017 5.8975 -9.85548 177.821 -13.4423 1.59028e-015 7.95139e-016 15.5401 -2.7464 1.0951 90 5.71506e-016 7.95139e-016 
263.978 89.5467 42.4357 17.7358 -84.0573 -67.0412 2.14601 -1.20278 -0.858341 4.27522 -2.43626 -1.67144 4.27522 -2.43626 -1.67145 -8.30748e-012 -9.0191e-006 -5.27751e-005 10.0436 0.0679254 -0.0283563 -179.077 -16.6623 -86.7845 -5.01287 -49.1292 16.0127 -11.4798 0 1.59028e-015 -64.5785 -28.8318 -50.9115 178.621 12.6587 96.2672 39.3792 66.341 -56.4509 -7.77255 -3.18055e-015 -3.47873e-016 -55.3822 20.3304 39.8948 5.53532 3.48019 174.69 -12.1285 1.59028e-015 1.98785e-016 10.3476 5.68126 -11.338 90 1.80459e-015 9.93923e-017 5.8948 -9.86312 177.825 -13.4298 0 -0 15.5384 -2.7426 1.10009 90 2.48481e-016 -0 
263.981 89.5465 42.4209 18.0752 -84.0666 -66.6882 2.14626 -1.19976 -0.856633 4.27562 -2.43019 -1.66808 4.27562 -2.43019 -1.66809 -8.30828e-012 -9.0191e-006 -5.27751e-005 10.0436 0.085673 -0.0604357 -179.058 -16.6971 -86.7235 -5.10797 -49.0677 16.0996 -11.4354 -3.18055e-015 1.59028e-015 -64.6558 -28.7506 -50.9451 178.638 12.6975 96.1716 39.1446 66.1874 -56.2236 -7.62877 6.36111e-015 -1.49089e-016 -55.0591 20.5269 39.7633 5.53653 3.45391 174.681 -12.0945 0 -0 10.3406 5.68604 -11.3632 90 -1.17407e-015 4.96962e-017 5.88353 -9.91227 177.815 -13.4308 1.59028e-015 1.59028e-015 15.5478 -2.75102 1.1159 90 3.23025e-016 -0 
263.988 89.5463 42.4145 18.5535 -84.08 -66.1991 2.147 -1.20752 -0.851686 4.27622 -2.4455 -1.65795 4.27622 -2.4455 -1.65796 -8.30669e-012 -9.0191e-006 -5.27751e-005 10.0185 0.0981519 -0.157601 -179.025 -16.6777 -86.6068 -5.24926 -48.8959 15.9928 -11.4066 -9.54166e-015 1.59028e-015 -64.5087 -28.8307 -50.8056 178.65 12.6831 96.1284 39.5546 66.153 -56.6338 -7.59506 9.54166e-015 1.09332e-015 -54.9769 20.6849 39.8899 5.51516 3.41775 174.675 -12.0757 7.95139e-016 -1.98785e-016 10.3308 5.68884 -11.3641 90 -2.16178e-015 -0 5.87414 -9.93321 177.814 -13.4037 1.59028e-015 -3.97569e-016 15.5493 -2.73203 1.08843 90 7.45443e-017 1.59028e-015 
264.001 89.5461 42.4024 18.7769 -84.0892 -65.9739 2.14876 -1.21035 -0.846453 4.28088 -2.45099 -1.64733 4.28088 -2.45099 -1.64734 -8.30748e-012 -9.0191e-006 -5.27751e-005 9.95583 0.0921785 -0.225886 -179.011 -16.6506 -86.551 -5.35527 -48.7333 15.8916 -11.4268 -3.18055e-015 -0 -64.3906 -28.8715 -50.692 178.652 12.6781 96.1176 39.6975 66.0768 -56.7455 -7.5351 6.36111e-015 -9.93923e-017 -54.8792 20.6975 39.8117 5.51376 3.42137 174.685 -12.0597 -7.95139e-016 -0 10.3359 5.70819 -11.3987 90 -3.9524e-015 -4.96962e-017 5.84876 -9.9811 177.819 -13.4356 1.59028e-015 7.95139e-016 15.6008 -2.75444 1.10319 90 1.49089e-016 1.59028e-015 
264.015 89.546 42.3926 18.7853 -84.1 -65.966 2.15536 -1.21342 -0.840538 4.29422 -2.45476 -1.63528 4.29422 -2.45476 -1.63529 -8.30669e-012 -9.0191e-006 -5.27751e-005 9.88477 0.153476 -0.266385 -179.019 -16.6395 -86.5768 -5.37612 -48.6588 15.892 -11.4224 6.36111e-015 3.18055e-015 -64.2971 -28.8856 -50.5878 178.662 12.6484 96.0868 39.4145 65.9428 -56.451 -7.62519 6.36111e-015 1.2921e-015 -54.7846 20.7677 39.796 5.51054 3.42125 174.682 -12.0342 -7.95139e-016 -3.97569e-016 10.3057 5.67015 -11.2953 90 -2.98332e-015 -4.96962e-017 5.87922 -9.95779 177.833 -13.3751 0 -7.95139e-016 15.5267 -2.74232 1.12199 90 5.46658e-016 7.95139e-016 
264.027 89.5459 42.3844 18.6212 -84.1176 -66.1436 2.16011 -1.21653 -0.831999 4.30389 -2.45909 -1.61802 4.30389 -2.45909 -1.61803 -8.30828e-012 -9.0191e-006 -5.27751e-005 9.85892 0.196628 -0.309898 -179.016 -16.6401 -86.569 -5.40989 -48.7151 15.8363 -11.4332 -6.36111e-015 -1.59028e-015 -64.2413 -28.9072 -50.5473 178.659 12.6681 96.0919 39.6758 66.0269 -56.7914 -7.69708 0 9.93923e-017 -54.9056 20.7181 39.8182 5.5072 3.42846 174.712 -12.0562 0 1.98785e-016 10.3391 5.69181 -11.364 90 1.06226e-015 -0 5.875 -9.95379 177.855 -13.3732 -1.59028e-015 -1.19271e-015 15.5557 -2.74202 1.1146 90 -4.96962e-017 7.95139e-016 
264.039 89.5459 42.3731 18.2355 -84.134 -66.5355 2.16573 -1.21957 -0.8263 4.31515 -2.4689 -1.60632 4.31515 -2.4689 -1.60632 -8.30748e-012 -9.0191e-006 -5.27751e-005 9.87115 0.223857 -0.306537 -179.016 -16.6438 -86.5692 -5.43949 -48.7992 15.7564 -11.4118 3.18055e-015 -0 -64.2748 -28.8604 -50.5359 178.645 12.6823 96.1486 39.8775 66.0608 -57.1436 -7.79049 -3.18055e-015 -9.93923e-016 -54.8881 20.6935 39.7702 5.51002 3.44763 174.717 -12.0713 -7.95139e-016 1.98785e-016 10.3379 5.66611 -11.2996 90 -4.1077e-015 -9.93923e-017 5.88903 -9.9074 177.866 -13.3562 0 7.95139e-016 15.5251 -2.74965 1.13836 90 -8.19987e-016 -1.59028e-015 
264.051 89.546 42.3581 17.9417 -84.1337 -66.8439 2.17549 -1.22218 -0.818172 4.33482 -2.47395 -1.58975 4.33482 -2.47395 -1.58976 -8.30669e-012 -9.0191e-006 -5.27751e-005 9.91243 0.140251 -0.269029 -179.016 -16.6523 -86.5681 -5.44871 -48.8465 15.7358 -11.4694 0 3.18055e-015 -64.3134 -28.8581 -50.5933 178.64 12.7647 96.1312 39.6421 66.0845 -57.1131 -7.9329 3.18055e-015 -1.49089e-016 -54.8023 20.6531 39.6639 5.52532 3.48854 174.744 -12.0892 7.95139e-016 5.96354e-016 10.3672 5.68716 -11.355 90 -1.58407e-016 -0 5.91545 -9.89583 177.885 -13.3477 -1.59028e-015 -2.38542e-015 15.528 -2.76155 1.16781 90 -8.69683e-016 -0 
264.058 89.546 42.3454 17.6417 -84.1336 -67.1567 2.18288 -1.22876 -0.805736 4.3498 -2.48672 -1.56447 4.3498 -2.48672 -1.56448 -8.30828e-012 -9.0191e-006 -5.27751e-005 9.97338 0.102711 -0.221335 -179.009 -16.6586 -86.5471 -5.41655 -48.9005 15.7569 -11.4715 3.18055e-015 1.59028e-015 -64.2303 -28.8523 -50.4737 178.628 12.8275 96.1565 39.3556 66.013 -57.084 -8.14909 -3.18055e-015 -1.49089e-016 -54.7469 20.6874 39.6061 5.54392 3.48964 174.758 -12.0828 -7.95139e-016 1.98785e-016 10.368 5.66877 -11.3029 90 6.38285e-016 4.96962e-017 5.95588 -9.85687 177.911 -13.2943 0 -3.97569e-016 15.5163 -2.73594 1.142 90 1.31695e-015 -7.95139e-016 
264.059 89.5461 42.3305 17.4564 -84.1357 -67.348 2.18279 -1.23186 -0.804993 4.35558 -2.49295 -1.56281 4.35558 -2.49295 -1.56281 -8.30748e-012 -9.0191e-006 -5.27751e-005 10.0965 0.0565559 -0.16209 -179.006 -16.6438 -86.5329 -5.37679 -48.9716 15.7999 -11.511 3.18055e-015 3.18055e-015 -64.3161 -28.8781 -50.6204 178.624 12.8563 96.1596 39.4275 66.0167 -57.3384 -8.20678 -6.36111e-015 -3.54085e-016 -54.8066 20.723 39.658 5.58237 3.48572 174.731 -12.0514 0 1.98785e-016 10.3351 5.6176 -11.1534 90 -2.62458e-016 -4.96962e-017 5.96974 -9.85033 177.901 -13.2995 0 1.19271e-015 15.5118 -2.75011 1.17028 90 1.81391e-015 7.95139e-016 
264.059 89.546 42.3199 17.501 -84.1431 -67.2951 2.18256 -1.23238 -0.801637 4.34965 -2.49136 -1.55427 4.34965 -2.49136 -1.55428 -8.30907e-012 -9.0191e-006 -5.27751e-005 10.2261 -0.0109391 -0.113301 -179.001 -16.6137 -86.5111 -5.37478 -49.0148 15.8503 -11.5157 -6.36111e-015 3.18055e-015 -64.2668 -28.9443 -50.6219 178.62 12.8645 96.1736 39.2471 65.8965 -57.27 -8.21595 0 1.49089e-016 -54.6987 20.8328 39.7575 5.57054 3.49778 174.744 -12.0607 -7.95139e-016 -1.98785e-016 10.3461 5.63861 -11.2209 90 1.9894e-015 -0 5.9977 -9.82448 177.916 -13.2332 1.59028e-015 1.19271e-015 15.4679 -2.71328 1.14018 90 2.48481e-017 1.59028e-015 
264.059 89.5459 42.3016 17.7589 -84.1387 -67.0325 2.18196 -1.23269 -0.797608 4.34341 -2.49176 -1.55159 4.34341 -2.49176 -1.55159 -8.30669e-012 -9.0191e-006 -5.27751e-005 10.3715 -0.0557242 -0.039429 -178.996 -16.5898 -86.4882 -5.42399 -49.0142 15.8791 -11.516 -6.36111e-015 -1.59028e-015 -64.315 -28.9676 -50.7069 178.623 12.8143 96.1854 39.6523 65.8986 -57.6581 -8.18573 3.18055e-015 1.41634e-015 -54.6653 20.8603 39.7533 5.58669 3.47256 174.739 -12.0378 -1.59028e-015 -3.97569e-016 10.3516 5.65076 -11.2507 90 7.15935e-016 -4.96962e-017 5.99274 -9.89242 177.904 -13.2539 0 7.95139e-016 15.4807 -2.74408 1.19306 90 5.2181e-016 1.59028e-015 
264.06 89.546 42.2861 18.1886 -84.125 -66.6001 2.18079 -1.23285 -0.795269 4.34564 -2.49263 -1.54891 4.34564 -2.49263 -1.54892 -8.30589e-012 -9.0191e-006 -5.27751e-005 10.447 -0.0771228 -0.0113599 -178.982 -16.555 -86.4303 -5.44236 -49.0359 15.8809 -11.5536 6.36111e-015 -1.59028e-015 -64.2588 -28.9972 -50.6548 178.628 12.7891 96.1774 40.044 65.9167 -58.0488 -8.17034 -3.18055e-015 -7.20594e-016 -54.9825 20.739 39.8571 5.59782 3.41731 174.737 -12.0244 -1.59028e-015 -0 10.3445 5.63489 -11.2106 90 -3.60297e-016 -4.96962e-017 6.03572 -9.90227 177.904 -13.1988 1.59028e-015 -0 15.4538 -2.72297 1.18808 90 -1.44119e-015 -0 
264.06 89.546 42.2715 18.6333 -84.107 -66.1538 2.17533 -1.23291 -0.794639 4.33483 -2.49354 -1.54606 4.33482 -2.49354 -1.54607 -8.30828e-012 -9.0191e-006 -5.27751e-005 10.5272 -0.0782256 0.0435843 -178.983 -16.5028 -86.4236 -5.40474 -49.093 15.933 -11.6415 6.36111e-015 1.59028e-015 -64.28 -28.9778 -50.6594 178.638 12.7937 96.1296 40.1292 65.8352 -58.1185 -8.19621 6.36111e-015 3.47873e-016 -54.7246 20.9595 39.8559 5.60318 3.39484 174.753 -12.0244 0 1.98785e-016 10.3533 5.6512 -11.2647 90 2.98177e-016 -4.96962e-017 6.06936 -9.94486 177.904 -13.1564 1.59028e-015 7.95139e-016 15.4166 -2.71626 1.21391 90 1.49089e-016 -0 
